<?xml version="1.0" encoding="UTF-8" standalone="no"?>
<!-- Created with Inkscape (http://www.inkscape.org/) -->

<svg
   width="1600mm"
   height="900mm"
   viewBox="0 0 1600 900"
   version="1.1"
   id="svg5"
   xml:space="preserve"
   inkscape:version="1.2.2 (732a01da63, 2022-12-09)"
   sodipodi:docname="about.svg"
   xmlns:inkscape="http://www.inkscape.org/namespaces/inkscape"
   xmlns:sodipodi="http://sodipodi.sourceforge.net/DTD/sodipodi-0.dtd"
   xmlns="http://www.w3.org/2000/svg"
   xmlns:svg="http://www.w3.org/2000/svg"><sodipodi:namedview
     id="namedview7"
     pagecolor="#13212e"
     bordercolor="#111111"
     borderopacity="1"
     inkscape:showpageshadow="false"
     inkscape:pageopacity="1"
     inkscape:pagecheckerboard="1"
     inkscape:deskcolor="#d1d1d1"
     inkscape:document-units="mm"
     showgrid="true"
     borderlayer="true"
     inkscape:lockguides="false"
     inkscape:zoom="0.2287265"
     inkscape:cx="2900.8445"
     inkscape:cy="1545.514"
     inkscape:window-width="2560"
     inkscape:window-height="1351"
     inkscape:window-x="1391"
     inkscape:window-y="-9"
     inkscape:window-maximized="1"
     inkscape:current-layer="layer1" /><defs
     id="defs2" /><g
     inkscape:label="图层 1"
     inkscape:groupmode="layer"
     id="layer1"><text
       xml:space="preserve"
       style="font-size:88.1944px;font-family:'UD Digi Kyokasho NP-B';-inkscape-font-specification:'UD Digi Kyokasho NP-B, Normal';fill:#3fc1c9;fill-opacity:1;stroke-width:0.264999;paint-order:markers stroke fill"
       x="268.37003"
       y="764.62317"
       id="text238"><tspan
         sodipodi:role="line"
         id="tspan236"
         style="fill:#3fc1c9;fill-opacity:1;stroke-width:0.265"
         x="268.37003"
         y="764.62317">About me and the blog.</tspan></text><g
       id="g4852"
       transform="matrix(15.384615,0,0,13.333333,499.87099,130.7508)"><rect
         width="22"
         height="28"
         x="6"
         y="2.0009999"
         fill="#97d8e8"
         rx="2"
         ry="2"
         id="rect4841"
         style="fill:#13212e;fill-opacity:1" /><path
         fill="#1590a7"
         d="m 18,16.001 c -2.206,0 -4,-1.794 -4,-4 0,-2.206 1.794,-4 4,-4 2.206,0 4,1.794 4,4 0,2.206 -1.794,4 -4,4 z m 0,-6 c -1.103,0 -2,0.897 -2,2 0,1.103 0.897,2 2,2 1.103,0 2,-0.897 2,-2 0,-1.103 -0.897,-2 -2,-2 z m 6,13 c 0,-3.309 -2.691,-6 -6,-6 -3.309,0 -6,2.691 -6,6 0,0.552 0.447,1 1,1 0.553,0 1,-0.448 1,-1 0,-2.206 1.794,-4 4,-4 2.206,0 4,1.794 4,4 0,0.552 0.447,1 1,1 0.553,0 1,-0.448 1,-1 z m 2,-22 H 8 c -1.654,0 -3,1.346 -3,3 v 2 H 4 c -0.553,0 -1,0.448 -1,1 0,0.552 0.447,1 1,1 h 1 v 7 H 4 c -0.553,0 -1,0.448 -1,1 0,0.552 0.447,1 1,1 h 1 v 7 H 4 c -0.553,0 -1,0.448 -1,1 0,0.552 0.447,1 1,1 h 1 v 2 c 0,1.654 1.346,3 3,3 h 18 c 1.654,0 3,-1.346 3,-3 v -24 c 0,-1.654 -1.346,-3 -3,-3 z m 1,27 c 0,0.551 -0.448,1 -1,1 H 8 c -0.552,0 -1,-0.449 -1,-1 v -2 h 1 c 0.553,0 1,-0.448 1,-1 0,-0.552 -0.447,-1 -1,-1 H 7 v -7 h 1 c 0.553,0 1,-0.448 1,-1 0,-0.552 -0.447,-1 -1,-1 H 7 v -7 h 1 c 0.553,0 1,-0.448 1,-1 0,-0.552 -0.447,-1 -1,-1 H 7 v -2 c 0,-0.551 0.448,-1 1,-1 h 18 c 0.552,0 1,0.449 1,1 z"
         id="path4843"
         style="fill:#3fc1c9;fill-opacity:1" /></g></g></svg>
