<?xml version="1.0" encoding="UTF-8" standalone="no"?>
<!-- Created with Inkscape (http://www.inkscape.org/) -->

<svg
   width="1600mm"
   height="900mm"
   viewBox="0 0 1600 900"
   version="1.1"
   id="svg239"
   xml:space="preserve"
   inkscape:version="1.2.2 (732a01da63, 2022-12-09)"
   sodipodi:docname="archive.svg"
   xmlns:inkscape="http://www.inkscape.org/namespaces/inkscape"
   xmlns:sodipodi="http://sodipodi.sourceforge.net/DTD/sodipodi-0.dtd"
   xmlns:xlink="http://www.w3.org/1999/xlink"
   xmlns="http://www.w3.org/2000/svg"
   xmlns:svg="http://www.w3.org/2000/svg"><sodipodi:namedview
     id="named-view241"
     pagecolor="#13212e"
     bordercolor="#111111"
     borderopacity="1"
     inkscape:showpageshadow="0"
     inkscape:pageopacity="1"
     inkscape:pagecheckerboard="1"
     inkscape:deskcolor="#d1d1d1"
     inkscape:document-units="mm"
     showgrid="false"
     inkscape:zoom="0.16173406"
     inkscape:cx="2661.777"
     inkscape:cy="1462.277"
     inkscape:window-width="2560"
     inkscape:window-height="1351"
     inkscape:window-x="1391"
     inkscape:window-y="-9"
     inkscape:window-maximized="1"
     inkscape:current-layer="layer1" /><defs
     id="defs236"><linearGradient
       inkscape:collect="always"
       id="linearGradient4219"><stop
         style="stop-color:#3fc1c9;stop-opacity:1;"
         offset="0"
         id="stop4215" /><stop
         style="stop-color:#3fc1c9;stop-opacity:0;"
         offset="1"
         id="stop4217" /></linearGradient><linearGradient
       inkscape:collect="always"
       xlink:href="#linearGradient4219"
       id="linearGradient4221"
       x1="386.27272"
       y1="740.46451"
       x2="1174.5101"
       y2="740.46451"
       gradientUnits="userSpaceOnUse" /></defs><g
     inkscape:label="图层 1"
     inkscape:groupmode="layer"
     id="layer1"><path
       d="m 661.85772,157.88462 a 84.351963,84.351963 0 0 0 -84.52774,84.52774 v 230.94416 a 84.351963,84.351963 0 0 0 84.52774,84.52773 h 230.94416 a 84.351963,84.351963 0 0 0 84.52773,-84.52773 V 242.41236 a 84.351963,84.351963 0 0 0 -84.52773,-84.52774 z m 27.47201,80.00017 h 191.99992 c 9.29582,0 17.63195,2.72126 23.50382,8.49577 5.87187,5.79326 8.49637,13.88809 8.49637,23.00794 v 192.49579 c 0,9.44035 -2.60636,17.56845 -8.49637,23.50442 -5.89002,5.92025 -14.17595,8.49577 -23.50382,8.49577 H 733.82594 l -76.4964,-76.49579 V 270.87672 c 0,-9.64837 2.55799,-18.46404 8.49638,-24.47983 5.92025,-6.04845 14.07979,-8.5121 23.50381,-8.5121 z m 0,15.99979 c -6.81584,0 -10.36799,1.83836 -12.49602,3.99723 -2.12863,2.15886 -3.50135,5.90211 -3.50135,13.00761 v 139.4881 l 31.99958,32.00019 v -60.496 h 160.00034 v 95.99996 h 15.99979 c 6.67192,0 10.40005,-1.37878 12.49602,-3.5074 2.11049,-2.12863 3.50135,-5.67836 3.50135,-12.49602 v -192.4958 c 0,-6.36774 -1.39086,-9.91989 -3.50135,-12.00014 -2.11049,-2.08026 -5.89001,-3.50136 -12.49602,-3.50136 h -15.99979 v 80.00017 H 705.33194 v -80.00017 z m 32.00019,0 v 32.00019 h 127.99954 v -32.00019 z m 0,47.99998 v 15.99979 h 127.99954 v -15.99979 z m 0,95.99996 v 60.496 l 19.50356,19.50417 h 108.49598 v -80.00017 z m 15.99979,15.99979 h 15.99979 v 47.99998 h -15.99979 z m 32.00019,0 h 63.99977 v 16.0004 H 769.3299 Z m 0,32.00019 h 63.99977 v 15.99979 H 769.3299 Z"
       id="path552"
       style="fill:#3fc1c9;fill-opacity:1;stroke-width:15.9999" /><text
       xml:space="preserve"
       style="font-size:88.1944px;font-family:'UD Digi Kyokasho NP-B';-inkscape-font-specification:'UD Digi Kyokasho NP-B, Normal';fill:#3fc1c9;fill-opacity:1;stroke-width:0.264999;paint-order:markers stroke fill"
       x="378.26288"
       y="764.62323"
       id="text1513"><tspan
         sodipodi:role="line"
         id="tspan1511"
         style="stroke-width:0.265;fill-opacity:1;fill:#3fc1c9"
         x="378.26288"
         y="764.62323">Blog Post Archive</tspan></text></g></svg>
