<?xml version="1.0" encoding="UTF-8" standalone="no"?>
<svg
   viewBox="0 0 24 24"
   id="atom"
   version="1.1"
   sodipodi:docname="favicon.svg"
   inkscape:version="1.2.2 (732a01da63, 2022-12-09)"
   xmlns:inkscape="http://www.inkscape.org/namespaces/inkscape"
   xmlns:sodipodi="http://sodipodi.sourceforge.net/DTD/sodipodi-0.dtd"
   xmlns:xlink="http://www.w3.org/1999/xlink"
   xmlns="http://www.w3.org/2000/svg"
   xmlns:svg="http://www.w3.org/2000/svg">
  <defs
     id="defs16">
    <linearGradient
       inkscape:collect="always"
       id="linearGradient12082">
      <stop
         style="stop-color:#64dde7;stop-opacity:1;"
         offset="0"
         id="stop12078" />
      <stop
         style="stop-color:#ffffff;stop-opacity:0.76859504;"
         offset="1"
         id="stop12080" />
    </linearGradient>
    <linearGradient
       inkscape:collect="always"
       xlink:href="#linearGradient12082"
       id="linearGradient12086"
       x1="-0.00069029821"
       y1="12.001051"
       x2="24.000256"
       y2="12.001051"
       gradientUnits="userSpaceOnUse" />
  </defs>
  <sodipodi:namedview
     id="namedview14"
     pagecolor="#ffffff"
     bordercolor="#111111"
     borderopacity="1"
     inkscape:showpageshadow="0"
     inkscape:pageopacity="1"
     inkscape:pagecheckerboard="1"
     inkscape:deskcolor="#d1d1d1"
     showgrid="false"
     inkscape:zoom="21.395834"
     inkscape:cx="19.419668"
     inkscape:cy="9.6981497"
     inkscape:window-width="2560"
     inkscape:window-height="1351"
     inkscape:window-x="1391"
     inkscape:window-y="-9"
     inkscape:window-maximized="1"
     inkscape:current-layer="atom" />
  <path
     fill="#303c42"
     d="M23.823 11.818c-1.035-2.599-6.652-4.649-12.946-4.785 2.579-2.923 5.223-4.546 6.73-4.326 1.446.213 1.405 2.128 1.253 3.251a.5.5 0 0 0 .428.563.505.505 0 0 0 .562-.428c.345-2.533-.42-4.128-2.098-4.375-2.122-.31-5.328 1.864-8.181 5.311a25.448 25.448 0 0 0-3.283.277c-.383-2.218-.23-3.961.423-4.781.913-1.143 2.563-.144 3.466.552a.498.498 0 0 0 .701-.091.499.499 0 0 0-.09-.701C8.755.718 6.985.577 5.928 1.902c-.877 1.102-1.051 3.135-.627 5.58C2.94 7.974 1.199 8.839.43 9.971c-.469.69-.557 1.457-.254 2.217.307.769.994 1.493 2.044 2.152a.5.5 0 1 0 .531-.847c-.853-.535-1.423-1.114-1.645-1.674-.18-.451-.13-.871.151-1.286.538-.793 1.985-1.587 4.243-2.064.23 1.01.552 2.072.962 3.158-2.145 3.899-2.93 7.436-2.02 9.322.365.756.989 1.219 1.806 1.339.143.021.29.032.441.032.893 0 1.932-.365 3.097-1.088a.5.5 0 1 0-.527-.849c-1.141.708-2.127 1.025-2.867.917-.486-.072-.83-.329-1.051-.785-.589-1.22-.268-4.009 1.606-7.678a30.2 30.2 0 0 0 1.61 3.198c2.396 4.131 5.251 6.797 7.451 6.959.07.005.14.008.208.008.748 0 1.386-.307 1.854-.895 1.525-1.917.945-6.769-1.41-11.801a.5.5 0 1 0-.906.423c2.132 4.552 2.791 9.175 1.533 10.754-.304.382-.703.547-1.206.514-1.513-.111-4.158-2.153-6.659-6.464a28.777 28.777 0 0 1-1.861-3.837c.029-.051.05-.096.079-.146a28.878 28.878 0 0 1 2.408-3.524c.058 0 .109-.005.168-.005 6.591 0 11.877 2.155 12.678 4.168.44 1.107-.62 1.929-1.587 2.423a.5.5 0 1 0 .455.89c1.862-.953 2.613-2.295 2.061-3.684zm-16.708-1.33a22.465 22.465 0 0 1-.628-2.192 22.333 22.333 0 0 1 2.263-.229 30.013 30.013 0 0 0-1.635 2.421z"
     id="path2"
     style="fill:url(#linearGradient12086);fill-opacity:1" />
  <linearGradient
     id="a"
     x1="1.687"
     x2="22.313"
     y1="7.192"
     y2="16.81"
     gradientUnits="userSpaceOnUse">
    <stop
       offset="0"
       stop-color="#fff"
       stop-opacity=".2"
       id="stop6" />
    <stop
       offset="1"
       stop-color="#fff"
       stop-opacity="0"
       id="stop8" />
  </linearGradient>
  <path
     fill="url(#a)"
     d="M23.823 11.818c-1.035-2.599-6.652-4.649-12.946-4.785 2.579-2.923 5.223-4.546 6.73-4.326 1.446.213 1.405 2.128 1.253 3.251a.5.5 0 0 0 .428.563.505.505 0 0 0 .562-.428c.345-2.533-.42-4.128-2.098-4.375-2.122-.31-5.328 1.864-8.181 5.311a25.272 25.272 0 0 0-3.283.277c-.383-2.218-.23-3.961.423-4.781.913-1.143 2.563-.145 3.466.552a.498.498 0 0 0 .701-.091.499.499 0 0 0-.09-.701C8.755.718 6.985.577 5.928 1.902c-.877 1.102-1.051 3.135-.627 5.58C2.94 7.974 1.199 8.839.43 9.971c-.469.69-.557 1.457-.254 2.217.307.769.994 1.493 2.044 2.152a.5.5 0 1 0 .531-.847c-.853-.535-1.423-1.114-1.645-1.674-.18-.451-.13-.871.151-1.286.538-.793 1.985-1.587 4.243-2.064.23 1.01.552 2.072.962 3.158-2.145 3.899-2.93 7.436-2.02 9.322.365.756.989 1.219 1.806 1.339.143.021.29.032.441.032.893 0 1.932-.365 3.097-1.088a.5.5 0 1 0-.527-.849c-1.141.708-2.127 1.025-2.867.917-.486-.072-.83-.328-1.051-.785-.589-1.22-.268-4.009 1.606-7.678a30.2 30.2 0 0 0 1.61 3.198c2.396 4.131 5.252 6.797 7.451 6.959.07.005.14.008.208.008.748 0 1.386-.307 1.854-.895 1.525-1.917.945-6.769-1.41-11.8a.5.5 0 1 0-.906.423c2.132 4.552 2.791 9.175 1.533 10.754-.304.382-.703.547-1.206.513-1.513-.111-4.158-2.153-6.659-6.464a28.777 28.777 0 0 1-1.861-3.837c.029-.051.05-.096.079-.146a28.878 28.878 0 0 1 2.408-3.524c.058 0 .109-.005.168-.005 6.591 0 11.877 2.155 12.678 4.168.44 1.107-.62 1.929-1.587 2.423a.5.5 0 1 0 .455.89c1.862-.953 2.613-2.295 2.061-3.684zm-16.708-1.33a22.748 22.748 0 0 1-.628-2.192 22.333 22.333 0 0 1 2.263-.229 29.837 29.837 0 0 0-1.635 2.421zM10 12c0 1.103.897 2 2 2s2-.897 2-2-.897-2-2-2-2 .897-2 2z"
     id="path11"
     style="fill:none;fill-opacity:1" />
  <text
     xml:space="preserve"
     style="font-size:333.333px;font-family:'UD Digi Kyokasho NP-B';-inkscape-font-specification:'UD Digi Kyokasho NP-B, Normal';fill:#3fc1c9;fill-opacity:0.784314;stroke-width:1.00157;paint-order:markers stroke fill"
     x="9.204093"
     y="12.839461"
     id="text2340"><tspan
       sodipodi:role="line"
       id="tspan2338"></tspan></text>
  <text
     xml:space="preserve"
     style="font-style:normal;font-variant:normal;font-weight:normal;font-stretch:normal;font-size:8px;font-family:'UD Digi Kyokasho NP-B';-inkscape-font-specification:'UD Digi Kyokasho NP-B, Normal';font-variant-ligatures:normal;font-variant-caps:normal;font-variant-numeric:normal;font-variant-east-asian:normal;fill:#c52e88;fill-opacity:1;stroke-width:1.00157;paint-order:markers stroke fill"
     x="8.7867565"
     y="12.666017"
     id="text2344"><tspan
       sodipodi:role="line"
       id="tspan2342"
       x="8.7867565"
       y="12.666017">a</tspan></text>
  <text
     xml:space="preserve"
     style="font-style:normal;font-variant:normal;font-weight:normal;font-stretch:normal;font-size:8px;font-family:'UD Digi Kyokasho NP-B';-inkscape-font-specification:'UD Digi Kyokasho NP-B, Normal';font-variant-ligatures:normal;font-variant-caps:normal;font-variant-numeric:normal;font-variant-east-asian:normal;fill:#c52e88;fill-opacity:1;stroke-width:1.00157;paint-order:markers stroke fill"
     x="12.899707"
     y="20.751703"
     id="text2348"><tspan
       sodipodi:role="line"
       id="tspan2346"
       x="12.899707"
       y="20.751703">k</tspan></text>
  <text
     xml:space="preserve"
     style="font-style:normal;font-variant:normal;font-weight:normal;font-stretch:normal;font-size:6.66667px;font-family:'UD Digi Kyokasho NP-B';-inkscape-font-specification:'UD Digi Kyokasho NP-B, Normal';font-variant-ligatures:normal;font-variant-caps:normal;font-variant-numeric:normal;font-variant-east-asian:normal;fill:#3fc1c9;fill-opacity:0.784314;stroke-width:1.00157;paint-order:markers stroke fill"
     x="11.63778"
     y="14.488803"
     id="text2356"><tspan
       sodipodi:role="line"
       id="tspan2354"
       x="11.63778"
       y="14.488803">.</tspan></text>
</svg>
