<?xml version="1.0" encoding="UTF-8" standalone="no"?>
<!-- Created with Inkscape (http://www.inkscape.org/) -->

<svg
   width="1600mm"
   height="900mm"
   viewBox="0 0 1600 900"
   version="1.1"
   id="svg5"
   xml:space="preserve"
   inkscape:version="1.2.2 (732a01da63, 2022-12-09)"
   sodipodi:docname="links.svg"
   xmlns:inkscape="http://www.inkscape.org/namespaces/inkscape"
   xmlns:sodipodi="http://sodipodi.sourceforge.net/DTD/sodipodi-0.dtd"
   xmlns:xlink="http://www.w3.org/1999/xlink"
   xmlns="http://www.w3.org/2000/svg"
   xmlns:svg="http://www.w3.org/2000/svg"><sodipodi:namedview
     id="namedview7"
     pagecolor="#13212e"
     bordercolor="#ffffff"
     borderopacity="1"
     inkscape:showpageshadow="0"
     inkscape:pageopacity="0"
     inkscape:pagecheckerboard="false"
     inkscape:deskcolor="#a9d5b2"
     inkscape:document-units="mm"
     showgrid="false"
     inkscape:zoom="0.2287265"
     inkscape:cx="2776.2415"
     inkscape:cy="1681.047"
     inkscape:window-width="2560"
     inkscape:window-height="1351"
     inkscape:window-x="1391"
     inkscape:window-y="-9"
     inkscape:window-maximized="1"
     inkscape:current-layer="layer1" /><defs
     id="defs2"><rect
       x="1591.4203"
       y="2194.761"
       width="3563.2076"
       height="712.64152"
       id="rect8416" /><color-profile
       name="Agfa-:-Swop-Standard"
       xlink:href="../../../../WINDOWS/system32/spool/drivers/color/RSWOP.icm"
       id="color-profile9511" /></defs><g
     inkscape:label="图层 1"
     inkscape:groupmode="layer"
     id="layer1"><g
       style="fill:#3fc1c9;fill-opacity:1"
       id="g285"
       transform="matrix(4.8420767,0,0,4.7098748,392.07985,620.04698)"><path
         fill="#5e94ff"
         fill-rule="evenodd"
         d="M 8.25,11 C 8.25,8.92893 9.92893,7.25 12,7.25 h 1 c 2.0711,0 3.75,1.67893 3.75,3.75 v 2 c 0,2.0711 -1.6789,3.75 -3.75,3.75 H 12 C 9.92893,16.75 8.25,15.0711 8.25,13 Z M 12,8.75 C 10.7574,8.75 9.75,9.75736 9.75,11 v 2 c 0,1.2426 1.0074,2.25 2.25,2.25 h 1 c 1.2426,0 2.25,-1.0074 2.25,-2.25 V 11 C 15.25,9.75736 14.2426,8.75 13,8.75 Z"
         clip-rule="evenodd"
         id="path274"
         style="fill:#3fc1c9;fill-opacity:1" /><path
         fill="#5e94ff"
         fill-rule="evenodd"
         d="M 3.25,11.5 C 3.25,6.94365 6.94365,3.25 11.5,3.25 H 14 c 3.7279,0 6.75,3.02208 6.75,6.75 v 4 c 0,1.5188 -1.2312,2.75 -2.75,2.75 -1.5188,0 -2.75,-1.2312 -2.75,-2.75 v -2 c 0,-0.4142 0.3358,-0.75 0.75,-0.75 0.4142,0 0.75,0.3358 0.75,0.75 v 2 c 0,0.6904 0.5596,1.25 1.25,1.25 0.6904,0 1.25,-0.5596 1.25,-1.25 V 10 C 19.25,7.10051 16.8995,4.75 14,4.75 h -2.5 c -3.72792,0 -6.75,3.02208 -6.75,6.75 v 1 c 0,3.7279 3.02208,6.75 6.75,6.75 h 2.9226 c 1.2234,0 2.4238,-0.3325 3.4729,-0.9619 l 0.7186,-0.4312 c 0.3552,-0.2131 0.8159,-0.098 1.029,0.2572 0.2131,0.3552 0.098,0.8159 -0.2572,1.029 l -0.7187,0.4312 C 17.385,20.3436 15.9179,20.75 14.4226,20.75 H 11.5 c -4.55635,0 -8.25,-3.6937 -8.25,-8.25 z"
         clip-rule="evenodd"
         id="path276"
         style="fill:#3fc1c9;fill-opacity:1" /></g><text
       xml:space="preserve"
       style="font-style:normal;font-variant:normal;font-weight:normal;font-stretch:normal;font-size:88.1944px;font-family:'UD Digi Kyokasho NP-B';-inkscape-font-specification:'UD Digi Kyokasho NP-B, Normal';font-variant-ligatures:normal;font-variant-caps:normal;font-variant-numeric:normal;font-variant-east-asian:normal;fill:#3fc1c9;fill-opacity:1;stroke-width:0.264999;paint-order:markers stroke fill"
       x="506.04871"
       y="711.21332"
       id="text499"><tspan
         sodipodi:role="line"
         id="tspan497"
         style="font-style:normal;font-variant:normal;font-weight:normal;font-stretch:normal;font-size:88.1944px;font-family:'UD Digi Kyokasho NP-B';-inkscape-font-specification:'UD Digi Kyokasho NP-B, Normal';font-variant-ligatures:normal;font-variant-caps:normal;font-variant-numeric:normal;font-variant-east-asian:normal;fill:#3fc1c9;fill-opacity:1;stroke-width:0.265"
         x="506.04871"
         y="711.21332">friend links :）</tspan></text><g
       id="g1116"
       transform="matrix(0.98366128,0,0,1.0051735,525.66125,106.44926)"
       style="fill:#3fc1c9;fill-opacity:1"><path
         fill="#231f20"
         d="m 232.91806,190.76206 a 73.34,73.34 0 1 1 73.33,-73.34 73.42,73.42 0 0 1 -73.33,73.34 z m 0,-125.529997 a 52.2,52.2 0 1 0 52.19,52.189997 52.25,52.25 0 0 0 -52.19,-52.189997 z m 13.7,282.599997 h -130.78 l -10.57,-10.57 a 127.79,127.79 0 0 1 127.65,-127.64 126.36,126.36 0 0 1 78.4,26.91 130.26,130.26 0 0 1 10.06,8.71 l 7.62,7.33 -14.66,15.24 -7.62,-7.33 a 107.49,107.49 0 0 0 -8.39,-7.28 105.46,105.46 0 0 0 -65.41,-22.44 106.67,106.67 0 0 0 -106,95.93 h 119.7 z"
         id="path1105"
         style="fill:#3fc1c9;fill-opacity:1" /><path
         fill="#231f20"
         d="m 305.08806,347.52206 -16.14,-0.15 -47.16,-56.88 16.28,-13.49 39.17,47.25 75.81,-87.99 16.02,13.8 z"
         id="path1107"
         style="fill:#3fc1c9;fill-opacity:1" /></g><text
       xml:space="preserve"
       transform="scale(0.26458333)"
       id="text8414"
       style="fill:#3fc1c9;-inkscape-font-specification:'UD Digi Kyokasho NP-B, Normal';font-family:'UD Digi Kyokasho NP-B';font-size:106.66666667px;paint-order:stroke fill markers;stroke-width:37.79527559;white-space:pre;shape-inside:url(#rect8416)" /></g></svg>
