<?xml version="1.0" encoding="UTF-8" standalone="no"?>
<!-- Created with Inkscape (http://www.inkscape.org/) -->

<svg
   width="1400"
   height="195"
   viewBox="0 0 1400 195"
   version="1.1"
   id="SVGRoot"
   sodipodi:docname="logo.svg"
   xml:space="preserve"
   inkscape:version="1.2.2 (732a01da63, 2022-12-09)"
   xmlns:inkscape="http://www.inkscape.org/namespaces/inkscape"
   xmlns:sodipodi="http://sodipodi.sourceforge.net/DTD/sodipodi-0.dtd"
   xmlns="http://www.w3.org/2000/svg"
   xmlns:svg="http://www.w3.org/2000/svg"><sodipodi:namedview
     id="namedview137"
     pagecolor="#ffffff"
     bordercolor="#ffffff"
     borderopacity="1"
     inkscape:showpageshadow="0"
     inkscape:pageopacity="0"
     inkscape:pagecheckerboard="1"
     inkscape:deskcolor="#d1d1d1"
     inkscape:document-units="px"
     showgrid="false"
     inkscape:zoom="1.2938725"
     inkscape:cx="753.55184"
     inkscape:cy="237.65866"
     inkscape:window-width="2560"
     inkscape:window-height="1351"
     inkscape:window-x="1391"
     inkscape:window-y="-9"
     inkscape:window-maximized="1"
     inkscape:current-layer="layer1" /><defs
     id="defs132"><linearGradient
       id="a"
       x1="128"
       x2="128"
       y1="10.270909"
       y2="255.858"
       gradientUnits="userSpaceOnUse"><stop
         offset="0%"
         stop-color="#FDFDFD"
         id="stop314" /><stop
         offset="100%"
         stop-color="#CBCBCB"
         id="stop316" /></linearGradient><linearGradient
       id="b"
       x1="127.858"
       x2="127.858"
       y1="20.496372"
       y2="245.049"
       gradientUnits="userSpaceOnUse"><stop
         offset="0%"
         stop-color="#B2E198"
         id="stop319" /><stop
         offset="100%"
         stop-color="#04A171"
         id="stop321" /></linearGradient></defs><g
     inkscape:label="图层 1"
     inkscape:groupmode="layer"
     id="layer1"><text
       xml:space="preserve"
       style="font-size:192px;font-family:sans-serif;-inkscape-font-specification:'sans-serif, Normal';fill:#3fc1c9;stroke-width:1.00157;paint-order:markers stroke fill"
       x="267.41431"
       y="287.509"
       id="text511"><tspan
         sodipodi:role="line"
         id="tspan509"
         x="267.41431"
         y="287.509" /></text><text
       xml:space="preserve"
       style="font-style:normal;font-variant:normal;font-weight:normal;font-stretch:normal;font-size:192px;font-family:'UD Digi Kyokasho NP-B';-inkscape-font-specification:'UD Digi Kyokasho NP-B, Normal';font-variant-ligatures:normal;font-variant-caps:normal;font-variant-numeric:normal;font-variant-east-asian:normal;fill:#3fc1c9;stroke-width:1.00157;paint-order:markers stroke fill"
       x="272.05154"
       y="289.82764"
       id="text565"><tspan
         sodipodi:role="line"
         id="tspan567"
         x="272.05154"
         y="289.82764" /></text><text
       xml:space="preserve"
       style="font-style:normal;font-variant:normal;font-weight:normal;font-stretch:normal;font-size:192px;font-family:'UD Digi Kyokasho NP-B';-inkscape-font-specification:'UD Digi Kyokasho NP-B, Normal';font-variant-ligatures:normal;font-variant-caps:normal;font-variant-numeric:normal;font-variant-east-asian:normal;fill:#3fc1c9;stroke-width:1.00157;paint-order:markers stroke fill"
       x="235.17448"
       y="155.83253"
       id="text571"><tspan
         sodipodi:role="line"
         id="tspan569"
         x="235.17448"
         y="155.83253">aiktb<tspan
   style="fill:#a9d5c4;fill-opacity:1"
   id="tspan420">'s blog</tspan></tspan><tspan
         sodipodi:role="line"
         x="235.17448"
         y="395.83252"
         id="tspan418" /></text><g
       id="g8037"
       transform="matrix(7.999685,0,0,8.7265202,1.2136705,-7.2282676)"><path
         fill="#303c42"
         d="M 23.823,11.818 C 22.788,9.219 17.171,7.169 10.877,7.033 13.456,4.11 16.1,2.487 17.607,2.707 19.053,2.92 19.012,4.835 18.86,5.958 A 0.5,0.5 0 0 0 19.288,6.521 0.505,0.505 0 0 0 19.85,6.093 C 20.195,3.56 19.43,1.965 17.752,1.718 15.63,1.408 12.424,3.582 9.571,7.029 A 25.448,25.448 0 0 0 6.288,7.306 C 5.905,5.088 6.058,3.345 6.711,2.525 7.624,1.382 9.274,2.381 10.177,3.077 A 0.498,0.498 0 0 0 10.878,2.986 0.499,0.499 0 0 0 10.788,2.285 C 8.755,0.718 6.985,0.577 5.928,1.902 5.051,3.004 4.877,5.037 5.301,7.482 2.94,7.974 1.199,8.839 0.43,9.971 c -0.469,0.69 -0.557,1.457 -0.254,2.217 0.307,0.769 0.994,1.493 2.044,2.152 A 0.5,0.5 0 1 0 2.751,13.493 C 1.898,12.958 1.328,12.379 1.106,11.819 0.926,11.368 0.976,10.948 1.257,10.533 1.795,9.74 3.242,8.946 5.5,8.469 c 0.23,1.01 0.552,2.072 0.962,3.158 -2.145,3.899 -2.93,7.436 -2.02,9.322 0.365,0.756 0.989,1.219 1.806,1.339 0.143,0.021 0.29,0.032 0.441,0.032 0.893,0 1.932,-0.365 3.097,-1.088 A 0.5,0.5 0 1 0 9.259,20.383 C 8.118,21.091 7.132,21.408 6.392,21.3 5.906,21.228 5.562,20.971 5.341,20.515 4.752,19.295 5.073,16.506 6.947,12.837 a 30.2,30.2 0 0 0 1.61,3.198 c 2.396,4.131 5.251,6.797 7.451,6.959 0.07,0.005 0.14,0.008 0.208,0.008 0.748,0 1.386,-0.307 1.854,-0.895 1.525,-1.917 0.945,-6.769 -1.41,-11.801 a 0.5,0.5 0 1 0 -0.906,0.423 c 2.132,4.552 2.791,9.175 1.533,10.754 -0.304,0.382 -0.703,0.547 -1.206,0.514 -1.513,-0.111 -4.158,-2.153 -6.659,-6.464 A 28.777,28.777 0 0 1 7.561,11.696 C 7.59,11.645 7.611,11.6 7.64,11.55 a 28.878,28.878 0 0 1 2.408,-3.524 c 0.058,0 0.109,-0.005 0.168,-0.005 6.591,0 11.877,2.155 12.678,4.168 0.44,1.107 -0.62,1.929 -1.587,2.423 a 0.5,0.5 0 1 0 0.455,0.89 c 1.862,-0.953 2.613,-2.295 2.061,-3.684 z M 7.115,10.488 A 22.465,22.465 0 0 1 6.487,8.296 22.333,22.333 0 0 1 8.75,8.067 30.013,30.013 0 0 0 7.115,10.488 Z"
         id="path2"
         style="fill:#3fc1c9;fill-opacity:1" /><path
         fill="#303c42"
         d="m 10,12 c 0,1.103 0.897,2 2,2 1.103,0 2,-0.897 2,-2 0,-1.103 -0.897,-2 -2,-2 -1.103,0 -2,0.897 -2,2 z"
         id="path4"
         style="fill:#a9d5c4;fill-opacity:1" /><path
         fill="url(#a)"
         d="M 23.823,11.818 C 22.788,9.219 17.171,7.169 10.877,7.033 13.456,4.11 16.1,2.487 17.607,2.707 19.053,2.92 19.012,4.835 18.86,5.958 A 0.5,0.5 0 0 0 19.288,6.521 0.505,0.505 0 0 0 19.85,6.093 C 20.195,3.56 19.43,1.965 17.752,1.718 15.63,1.408 12.424,3.582 9.571,7.029 A 25.272,25.272 0 0 0 6.288,7.306 C 5.905,5.088 6.058,3.345 6.711,2.525 7.624,1.382 9.274,2.38 10.177,3.077 A 0.498,0.498 0 0 0 10.878,2.986 0.499,0.499 0 0 0 10.788,2.285 C 8.755,0.718 6.985,0.577 5.928,1.902 5.051,3.004 4.877,5.037 5.301,7.482 2.94,7.974 1.199,8.839 0.43,9.971 c -0.469,0.69 -0.557,1.457 -0.254,2.217 0.307,0.769 0.994,1.493 2.044,2.152 A 0.5,0.5 0 1 0 2.751,13.493 C 1.898,12.958 1.328,12.379 1.106,11.819 0.926,11.368 0.976,10.948 1.257,10.533 1.795,9.74 3.242,8.946 5.5,8.469 c 0.23,1.01 0.552,2.072 0.962,3.158 -2.145,3.899 -2.93,7.436 -2.02,9.322 0.365,0.756 0.989,1.219 1.806,1.339 0.143,0.021 0.29,0.032 0.441,0.032 0.893,0 1.932,-0.365 3.097,-1.088 A 0.5,0.5 0 1 0 9.259,20.383 C 8.118,21.091 7.132,21.408 6.392,21.3 5.906,21.228 5.562,20.972 5.341,20.515 4.752,19.295 5.073,16.506 6.947,12.837 a 30.2,30.2 0 0 0 1.61,3.198 c 2.396,4.131 5.252,6.797 7.451,6.959 0.07,0.005 0.14,0.008 0.208,0.008 0.748,0 1.386,-0.307 1.854,-0.895 1.525,-1.917 0.945,-6.769 -1.41,-11.8 a 0.5,0.5 0 1 0 -0.906,0.423 c 2.132,4.552 2.791,9.175 1.533,10.754 -0.304,0.382 -0.703,0.547 -1.206,0.513 -1.513,-0.111 -4.158,-2.153 -6.659,-6.464 A 28.777,28.777 0 0 1 7.561,11.696 C 7.59,11.645 7.611,11.6 7.64,11.55 a 28.878,28.878 0 0 1 2.408,-3.524 c 0.058,0 0.109,-0.005 0.168,-0.005 6.591,0 11.877,2.155 12.678,4.168 0.44,1.107 -0.62,1.929 -1.587,2.423 a 0.5,0.5 0 1 0 0.455,0.89 c 1.862,-0.953 2.613,-2.295 2.061,-3.684 z M 7.115,10.488 A 22.748,22.748 0 0 1 6.487,8.296 22.333,22.333 0 0 1 8.75,8.067 29.837,29.837 0 0 0 7.115,10.488 Z M 10,12 c 0,1.103 0.897,2 2,2 1.103,0 2,-0.897 2,-2 0,-1.103 -0.897,-2 -2,-2 -1.103,0 -2,0.897 -2,2 z"
         id="path11"
         style="fill:none;fill-opacity:1" /></g><text
       xml:space="preserve"
       style="font-size:333.333px;font-family:'UD Digi Kyokasho NP-B';-inkscape-font-specification:'UD Digi Kyokasho NP-B, Normal';fill:#a9d5c4;stroke-width:1.00157;paint-order:markers stroke fill"
       x="944.35931"
       y="-142.09109"
       id="text8163"><tspan
         sodipodi:role="line"
         id="tspan8161"
         x="944.35931"
         y="-142.09109" /></text><text
       xml:space="preserve"
       style="font-size:333.333px;font-family:'UD Digi Kyokasho NP-B';-inkscape-font-specification:'UD Digi Kyokasho NP-B, Normal';fill:#a9d5c4;stroke-width:1.00157;paint-order:markers stroke fill"
       x="1107.2175"
       y="271.0661"
       id="text8255"><tspan
         sodipodi:role="line"
         id="tspan8253"
         x="1107.2175"
         y="271.0661" /></text><text
       xml:space="preserve"
       style="font-size:106.667px;font-family:'UD Digi Kyokasho NP-B';-inkscape-font-specification:'UD Digi Kyokasho NP-B, Normal';fill:#3fc1c9;stroke-width:37.7953;paint-order:stroke fill markers"
       x="698.43237"
       y="100.55678"
       id="text414"><tspan
         sodipodi:role="line"
         id="tspan412"
         x="698.43237"
         y="100.55678"></tspan></text></g></svg>
